# xmcd
#
# Track frame offsets:
#	150
#	16340
#	34312
#	49207
#	68370
#	86667
#	108707
#	122330
#	140002
#	160917
#
# Disc length: 2360 seconds
#
# Revision: 5
# Processed by: cddbd v1.5.2PL0 Copyright (c) Steve Scherf et al.
# Submitted via: audiograbber 1.83.01
#
DISCID=8209360a
DTITLE=Various Artist - Charlie Daniels Band - Marshall Tucker Band -- Best Of
DTITLE=Two Super Artists On 1 Great Compact Disc
DYEAR=0
DGENRE=Oldies
TTITLE0=Charlie Daniels Band - The Devil Went Down To Georgia
TTITLE1=Charlie Daniels Band - The South's Gonna Do It Again
TTITLE2=Charlie Daniels Band - In America
TTITLE3=Charlie Daniels Band - The Legend Of Wooley Swamp
TTITLE4=Charlie Daniels Band - Long Haired Country Boy
TTITLE5=Marshall Tucker Band - Heard It In A Love Song
TTITLE6=Marshall Tucker Band - Fly Like An Eagle
TTITLE7=Marshall Tucker Band - Fire On The Mountain
TTITLE8=Marshall Tucker Band - Dream Lover
TTITLE9=Marshall Tucker Band - Blue Ridge Mountain Sky
EXTD=
EXTT0=
EXTT1=
EXTT2=
EXTT3=
EXTT4=
EXTT5=
EXTT6=
EXTT7=
EXTT8=
EXTT9=
PLAYORDER=
